<svg width="840" height="771" viewBox="0 0 840 771" fill="none" xmlns="http://www.w3.org/2000/svg">
<path opacity="0.2" d="M687.375 537.301C565.78 611.777 411.077 599.803 302.564 507.278C273.668 482.756 249.471 453.729 230.734 421.274C206.327 379 191.874 332.496 187.884 283.121C183.717 230.815 191.662 179.924 211.368 131.751L214.352 124.516L68.8914 0.678704L62.4952 12.5024C15.1966 99.4824 -5.47079 198.236 2.47023 298.112C8.66168 375.157 31.2133 447.855 69.4643 514.107C98.8836 565.063 136.725 610.329 182.023 648.947C365.681 805.305 637.821 812.18 829.023 665.269L839.698 657.039L694.117 532.995L687.419 537.138L687.375 537.301Z" fill="#138FC2"/>
</svg>
