<svg width="21" height="20" viewBox="0 0 21 20" fill="none" xmlns="http://www.w3.org/2000/svg">
<path d="M19.8246 18.3984C20.2152 18.7891 20.2152 19.375 19.8246 19.7266C19.6683 19.9219 19.434 20 19.1996 20C18.9261 20 18.6918 19.9219 18.4965 19.7266L13.2621 14.4922C11.8558 15.625 10.098 16.25 8.22302 16.25C3.7699 16.25 0.137085 12.6172 0.137085 8.125C0.137085 3.67188 3.73083 0 8.22302 0C12.6761 0 16.348 3.67188 16.348 8.125C16.348 10.0391 15.723 11.7969 14.5902 13.1641L19.8246 18.3984ZM2.01208 8.125C2.01208 11.6016 4.78552 14.375 8.26208 14.375C11.6996 14.375 14.5121 11.6016 14.5121 8.125C14.5121 4.6875 11.6996 1.875 8.26208 1.875C4.78552 1.875 2.01208 4.6875 2.01208 8.125Z" fill="#138FC2"/>
</svg>
