<svg width="16" height="17" viewBox="0 0 16 17" fill="none" xmlns="http://www.w3.org/2000/svg">
<path d="M8 4C9.5 4 10.75 5.25 10.75 6.75C10.75 8.28125 9.5 9.5 8 9.5C6.46875 9.5 5.25 8.28125 5.25 6.75C5.25 5.25 6.46875 4 8 4ZM8 8C8.6875 8 9.25 7.46875 9.25 6.75C9.25 6.0625 8.6875 5.5 8 5.5C7.28125 5.5 6.75 6.0625 6.75 6.75C6.75 7.46875 7.28125 8 8 8ZM8 0.5C12.4062 0.5 16 4.09375 16 8.5C16 12.9375 12.4062 16.5 8 16.5C3.5625 16.5 0 12.9375 0 8.5C0 4.09375 3.5625 0.5 8 0.5ZM8 15C9.4375 15 10.7812 14.5312 11.875 13.7188C11.3438 12.6875 10.2812 12 9.09375 12H6.875C5.6875 12 4.625 12.6562 4.09375 13.7188C5.1875 14.5312 6.53125 15 8 15ZM13 12.6562C13.9375 11.5312 14.5 10.0938 14.5 8.5C14.5 4.9375 11.5625 2 8 2C4.40625 2 1.5 4.9375 1.5 8.5C1.5 10.0938 2.03125 11.5312 2.96875 12.6562C3.8125 11.3438 5.25 10.5 6.875 10.5H9.09375C10.7188 10.5 12.1562 11.3438 13 12.6562Z" fill="#2A2B7E"/>
</svg>
